<svg 
      version="1.0" 
      xmlns="http://www.w3.org/2000/svg"
      width="80pt" 
      height="180pt" 
      viewBox="0 0 230 516"
      preserveAspectRatio="xMidYMid meet"
      className="mr-4"
    >
      <g transform="translate(0.000000,516.000000) scale(0.100000,-0.100000)" fill="#000000" stroke="none">
        <path d="M83 5068 c-4 -7 -10 -1018 -11 -2246 l-4 -2232 294 2 293 3 6 100 c8 143 25 191 88 248 46 41 79 60 148 83 62 20 65 24 50 54 -45 87 -69 206 -55 280 21 117 86 197 204 251 133 62 184 71 269 48 61 -15 144 -61 187 -101 42 -40 109 -88 122 -88 9 0 39 15 68 33 80 50 106 59 188 64 61 4 86 1 135 -17 33 -12 70 -24 83 -27 l22 -5 0 1774 0 1775 -727 6 c-1101 10 -1350 9 -1360 -5z m1920 -1714 c3 -867 3 -1582 1 -1589 -3 -7 -29 -16 -57 -20 -85 -11 -150 -33 -186 -64 l-34 -29 -45 35 c-51 39 -119 75 -189 101 -37 13 -78 17 -178 16 -112 0 -138 -4 -190 -24 -172 -67 -296 -171 -354 -295 -32 -70 -43 -179 -28 -269 16 -90 17 -88 -65 -144 -24 -17 -56 -46 -71 -65 -29 -38 -77 -139 -99 -207 l-15 -45 -114 0 -114 0 -6 705 c-9 1003 -10 3455 -2 3463 3 4 396 7 873 7 l867 0 6 -1576z"/>
        <path d="M436 4722 c-2 -4 -6 -665 -8 -1467 l-3 -1460 83 -3 c61 -2 82 0 83 10 0 7 0 621 -1 1363 -1 743 2 1358 5 1368 9 21 50 22 160 2 249 -44 461 -183 639 -419 149 -198 229 -431 229 -671 1 -124 -10 -197 -44 -300 -70 -209 -220 -400 -422 -537 -70 -47 -236 -128 -264 -128 -10 0 -24 -5 -31 -12 -14 -14 -16 -154 -2 -163 12 -7 178 40 239 68 99 46 220 135 316 231 180 182 297 398 356 661 19 80 19 413 1 475 -7 25 -18 61 -23 80 -38 133 -122 286 -237 432 -91 117 -276 257 -437 332 -197 92 -236 103 -465 131 -145 17 -167 18 -174 7z"/>
        <path d="M1214 1536 c-33 -12 -77 -32 -96 -44 -128 -79 -130 -269 -5 -394 80 -79 221 -132 334 -126 l58 3 25 60 c21 53 24 75 24 185 1 116 -1 129 -27 185 -67 143 -168 185 -313 131z"/>
        <path d="M1871 1443 c-13 -2 -42 -23 -65 -46 -57 -58 -86 -146 -93 -288 -6 -106 -5 -109 15 -109 20 0 45 8 102 34 62 27 188 107 217 138 103 108 47 263 -99 273 -29 2 -64 1 -77 -2z"/>
        <path d="M950 909 c-107 -29 -160 -88 -160 -178 0 -112 45 -188 129 -216 128 -42 336 59 434 212 47 72 45 76 -30 111 -110 50 -144 61 -226 72 -90 12 -100 12 -147 -1z"/>
        <path d="M1549 905 c-82 -44 -75 -151 12 -190 89 -41 185 47 150 137 -21 57 -105 84 -162 53z"/>
        <path d="M1838 753 c-51 -8 -28 -72 51 -146 69 -65 124 -91 194 -91 54 -1 61 2 88 32 54 61 36 134 -44 178 -46 25 -63 28 -157 30 -58 1 -117 0 -132 -3z"/>
        <path d="M1490 602 c-102 -71 -160 -175 -160 -287 0 -80 32 -133 99 -161 45 -19 70 -18 135 7 67 24 115 76 135 145 30 100 -33 254 -130 317 -25 17 -27 16 -79 -21z"/>
      </g>
    </svg>